<?xml version="1.0" encoding="iso-8859-1"?>
<!-- Generator: Adobe Illustrator 19.0.0, SVG Export Plug-In . SVG Version: 6.00 Build 0)  -->
<svg version="1.1" id="Capa_1" xmlns="http://www.w3.org/2000/svg" xmlns:xlink="http://www.w3.org/1999/xlink" x="0px" y="0px"
	 viewBox="0 0 512 512" style="enable-background:new 0 0 512 512;" xml:space="preserve">
<g>
	<path style="fill:#67CDD9;" d="M313.806,305.548h181.677c4.558,0,8.258,3.7,8.258,8.258v99.097c0,4.558-3.7,8.258-8.258,8.258
		H313.806c-4.558,0-8.258-3.7-8.258-8.258v-99.097C305.548,309.248,309.248,305.548,313.806,305.548z"/>
	<path style="fill:#67CDD9;" d="M16.516,305.548h181.677c4.558,0,8.258,3.7,8.258,8.258v99.097c0,4.558-3.7,8.258-8.258,8.258
		H16.516c-4.558,0-8.258-3.7-8.258-8.258v-99.097C8.258,309.248,11.958,305.548,16.516,305.548z"/>
	<path style="fill:#67CDD9;" d="M165.161,8.258h181.677c4.558,0,8.258,3.7,8.258,8.258v99.097c0,4.558-3.7,8.258-8.258,8.258
		H165.161c-4.558,0-8.258-3.7-8.258-8.258V16.516C156.903,11.958,160.603,8.258,165.161,8.258z"/>
</g>
<path d="M173.419,165.161h56.32l-5.508,33.032h-17.78v16.516h99.097v-16.516h-17.78l-5.508-33.032h56.32
	c13.684,0,24.774-11.091,24.774-24.774V24.774C363.355,11.091,352.264,0,338.581,0H173.419c-13.684,0-24.774,11.091-24.774,24.774
	v115.613C148.645,154.071,159.736,165.161,173.419,165.161z M271.021,198.194h-30.043l5.5-33.032h19.043L271.021,198.194z
	 M338.581,148.645H173.419c-4.558,0-8.258-3.7-8.258-8.258v-8.258h181.677v8.258C346.839,144.946,343.139,148.645,338.581,148.645z
	 M173.419,16.516h165.161c4.558,0,8.258,3.7,8.258,8.258v90.839H165.161V24.774C165.161,20.216,168.861,16.516,173.419,16.516z"/>
<path d="M189.935,297.29H24.774C11.091,297.29,0,308.381,0,322.065v115.613c0,13.684,11.091,24.774,24.774,24.774h56.32
	l-5.508,33.032h-17.78V512h99.097v-16.516h-17.78l-5.508-33.032h56.32c13.684,0,24.774-11.091,24.774-24.774V322.065
	C214.71,308.381,203.619,297.29,189.935,297.29z M24.774,313.806h165.161c4.558,0,8.258,3.7,8.258,8.258v90.839H16.516v-90.839
	C16.516,317.506,20.216,313.806,24.774,313.806z M122.376,495.484H92.333l5.5-33.032h19.043L122.376,495.484z M189.935,445.935
	H24.774c-4.558,0-8.258-3.7-8.258-8.258v-8.258h181.677v8.258C198.194,442.236,194.494,445.935,189.935,445.935z"/>
<path d="M487.226,297.29H322.065c-13.684,0-24.774,11.091-24.774,24.774v115.613c0,13.684,11.091,24.774,24.774,24.774h56.32
	l-5.508,33.032h-17.78V512h99.097v-16.516h-17.78l-5.508-33.032h56.32c13.684,0,24.774-11.091,24.774-24.774V322.065
	C512,308.381,500.909,297.29,487.226,297.29z M322.065,313.806h165.161c4.558,0,8.258,3.7,8.258,8.258v90.839H313.806v-90.839
	C313.806,317.506,317.506,313.806,322.065,313.806z M419.667,495.484h-30.043l5.5-33.032h19.043L419.667,495.484z M487.226,445.935
	H322.065c-4.558,0-8.258-3.7-8.258-8.258v-8.258h181.677v8.258C495.484,442.236,491.784,445.935,487.226,445.935z"/>
<rect x="247.742" y="222.968" width="16.516" height="16.516"/>
<rect x="247.742" y="247.742" width="16.516" height="16.516"/>
<rect x="222.968" y="247.742" width="16.516" height="16.516"/>
<rect x="198.194" y="247.742" width="16.516" height="16.516"/>
<rect x="173.419" y="247.742" width="16.516" height="16.516"/>
<rect x="148.645" y="247.742" width="16.516" height="16.516"/>
<rect x="123.871" y="247.742" width="16.516" height="16.516"/>
<rect x="99.097" y="247.742" width="16.516" height="16.516"/>
<rect x="99.097" y="272.516" width="16.516" height="16.516"/>
<rect x="272.516" y="247.742" width="16.516" height="16.516"/>
<rect x="297.29" y="247.742" width="16.516" height="16.516"/>
<rect x="322.065" y="247.742" width="16.516" height="16.516"/>
<rect x="346.839" y="247.742" width="16.516" height="16.516"/>
<rect x="371.613" y="247.742" width="16.516" height="16.516"/>
<rect x="396.387" y="247.742" width="16.516" height="16.516"/>
<rect x="421.161" y="247.742" width="16.516" height="16.516"/>
<rect x="421.161" y="272.516" width="16.516" height="16.516"/>
<g>
</g>
<g>
</g>
<g>
</g>
<g>
</g>
<g>
</g>
<g>
</g>
<g>
</g>
<g>
</g>
<g>
</g>
<g>
</g>
<g>
</g>
<g>
</g>
<g>
</g>
<g>
</g>
<g>
</g>
</svg>
